<svg width="132" height="86" viewBox="0 0 132 86" fill="none" xmlns="http://www.w3.org/2000/svg">
<path fill-rule="evenodd" clip-rule="evenodd" d="M45.7861 0.56464C47.3672 6.49285 48.16 13.9305 48.16 22.8849C48.16 37.202 46.1054 47.6736 41.9999 54.3016C37.8915 60.9314 31.5557 64.2448 22.9922 64.2448C14.1913 64.2448 7.73734 60.9314 3.63184 54.3016C2.17379 51.9499 0.98052 49.1042 0.040912 45.7848V81.5024C6.69535 84.193 14.3446 85.541 22.9922 85.541C40.2392 85.541 53.497 80.1148 62.7675 69.2613C72.0351 58.4099 76.6718 42.949 76.6718 22.8849C76.6718 14.6609 75.8885 7.23011 74.3486 0.56464H45.7861ZM103.949 0.56464V84.485H131.758V0.56464H103.949Z" fill="white"/>
</svg>
