<svg width="180" height="86" viewBox="0 0 180 86" fill="none" xmlns="http://www.w3.org/2000/svg">
<path fill-rule="evenodd" clip-rule="evenodd" d="M123.134 61.2526L151.47 32.741C158.977 24.9972 164.785 17.7809 168.894 11.093C171.09 7.51523 172.68 4.00764 173.701 0.56464H145.163C144.562 2.32895 143.646 4.22333 142.405 6.25296C139.999 10.1856 136.743 14.2035 132.637 18.3093L87.0538 65.3016V84.485H179.63V61.2526H123.134ZM45.786 0.56464C47.367 6.49285 48.16 13.9305 48.16 22.8849C48.16 37.202 46.1054 47.6736 41.9999 54.3016C37.8916 60.9314 31.5556 64.2448 22.9921 64.2448C14.1914 64.2448 7.73727 60.9314 3.63172 54.3016C2.17372 51.9499 0.980342 49.1042 0.0410399 45.7848V81.5024C6.69532 84.193 14.3448 85.541 22.9921 85.541C40.2392 85.541 53.497 80.1148 62.7675 69.2613C72.0351 58.4099 76.6718 42.949 76.6718 22.8849C76.6718 14.6609 75.8886 7.23011 74.3485 0.56464H45.786Z" fill="#1F373D"/>
</svg>
