<svg width="179" height="86" viewBox="0 0 179 86" fill="none" xmlns="http://www.w3.org/2000/svg">
<path fill-rule="evenodd" clip-rule="evenodd" d="M169.157 23.0614C162.761 17.1957 154.167 13.5567 143.373 12.1494L137.037 11.2691L148.418 0.56464H120.389L107.117 13.381V29.2214H127.006C134.865 29.2214 140.909 30.6589 145.134 33.533C149.357 36.4101 151.47 40.6032 151.47 46.1168C151.47 51.6338 149.357 55.9462 145.134 59.0533C140.909 62.1638 134.926 63.7177 127.181 63.7177C121.079 63.7177 115.096 62.6031 109.229 60.3729C103.361 58.1452 97.9053 54.9166 92.8614 50.6932L82.125 71.2849C87.9912 75.6275 95.1767 79.1171 103.686 81.7578C112.191 84.3971 120.728 85.7175 129.294 85.7175C139.264 85.7175 147.977 84.0449 155.43 80.701C162.879 77.3574 168.63 72.6659 172.678 66.621C176.726 60.5799 178.749 53.6854 178.749 45.9411C178.749 36.5557 175.551 28.9294 169.157 23.0614ZM45.7861 0.56464C47.3681 6.49285 48.1601 13.9305 48.1601 22.8849C48.1601 37.202 46.1054 47.6736 42 54.3016C37.8915 60.9314 31.5556 64.2448 22.9921 64.2448C14.1913 64.2448 7.73723 60.9314 3.63179 54.3016C2.17474 51.9499 0.980502 49.1042 0.0400259 45.7848V81.5024C6.69431 84.193 14.3446 85.541 22.9921 85.541C40.2392 85.541 53.4971 80.1148 62.7676 69.2613C72.0351 58.4099 76.6718 42.949 76.6718 22.8849C76.6718 14.6609 75.8877 7.23011 74.3487 0.56464H45.7861Z" fill="#1F373D"/>
</svg>
