<svg width="17" height="17" viewBox="0 0 17 17" fill="none" xmlns="http://www.w3.org/2000/svg">
<path fill-rule="evenodd" clip-rule="evenodd" d="M16.4443 7.20395C16.3398 6.69234 16.1845 6.19023 15.9805 5.70962C15.7812 5.23806 15.5351 4.78417 15.248 4.35998C14.9648 3.93924 14.6386 3.54478 14.2793 3.18648C13.9189 2.82603 13.5254 2.49874 13.1034 2.21666C12.6796 1.92857 12.2255 1.68052 11.7538 1.48113C11.2753 1.28002 10.7715 1.12371 10.2607 1.02035C9.73829 0.911818 9.19914 0.857136 8.66104 0.857136C8.12294 0.857136 7.58587 0.911818 7.06048 1.02035C6.55168 1.12371 6.04778 1.28002 5.56828 1.48113C5.09666 1.68052 4.64256 1.92857 4.21867 2.21666C3.79879 2.49874 3.40226 2.82603 3.04189 3.18648C2.68448 3.54478 2.35741 3.93924 2.07314 4.35998C1.78703 4.78417 1.53905 5.23806 1.34175 5.70962C1.13862 6.19023 0.981377 6.69234 0.876896 7.20395C0.77137 7.72632 0.715757 8.26548 0.715757 8.8025C0.715757 9.34166 0.77137 9.88083 0.876896 10.4023C0.981377 10.9131 1.13862 11.4156 1.34175 11.8954C1.53905 12.3669 1.78703 12.8213 2.07314 13.2468C2.35741 13.6658 2.68448 14.0615 3.04189 14.4207C3.40226 14.7811 3.79879 15.1063 4.21867 15.3883C4.64256 15.6764 5.09666 15.9245 5.56828 16.1239C6.04778 16.3259 6.55168 16.4813 7.06048 16.5847C7.58587 16.6949 8.12294 16.7479 8.66104 16.7479C9.19914 16.7479 9.73829 16.6949 10.2607 16.5847C10.7715 16.4813 11.2753 16.3259 11.7538 16.1239C12.2255 15.9245 12.6796 15.6764 13.1034 15.3883C13.5254 15.1063 13.9189 14.7811 14.2793 14.4207C14.6386 14.0615 14.9648 13.6658 15.248 13.2468C15.5351 12.8213 15.7812 12.3669 15.9805 11.8954C16.1845 11.4156 16.3398 10.9131 16.4443 10.4023C16.5527 9.88083 16.6054 9.34166 16.6054 8.8025C16.6054 8.26548 16.5527 7.72632 16.4443 7.20395ZM15.4433 8.73402C15.3446 8.71379 13.0488 8.21941 10.7187 8.51267C10.6709 8.39641 10.6211 8.27928 10.5722 8.163C10.4296 7.83097 10.2782 7.50153 10.1211 7.17855C12.8007 6.0847 13.8867 4.51158 13.9013 4.49176C14.8515 5.64804 15.4277 7.12558 15.4433 8.73402ZM13.1426 3.71058C13.1249 3.73813 12.1581 5.20793 9.59763 6.16783C8.43846 4.0357 7.16405 2.34371 7.06242 2.20891C7.57614 2.08575 8.11025 2.01815 8.66104 2.01815C10.3788 2.01815 11.9472 2.65809 13.1426 3.71058ZM7.03508 2.21451V2.21666C7.03508 2.21666 7.02627 2.21754 7.01458 2.21968C7.01458 2.21968 7.02832 2.21754 7.03508 2.21451ZM5.76649 2.6667C5.85541 2.78683 7.11129 4.48918 8.28511 6.57608C5.02731 7.4421 2.20108 7.40722 2.02051 7.40419C2.46189 5.30352 3.87399 3.56114 5.76649 2.6667ZM1.87493 8.8025C1.87493 8.73015 1.87882 8.65911 1.88076 8.58846C2.00094 8.59063 5.35542 8.66686 8.84759 7.62167C9.04099 8.00193 9.22844 8.38866 9.3984 8.77624C9.30856 8.79862 9.21964 8.8279 9.12979 8.85503C5.4677 10.038 3.61225 13.3337 3.61225 13.3337L3.61421 13.3368C2.53514 12.1335 1.87493 10.5449 1.87493 8.8025ZM8.66104 15.5886C7.0195 15.5886 5.51164 15.0038 4.33885 14.034C4.42765 14.1063 4.49013 14.1519 4.49013 14.1519C4.49013 14.1519 5.79098 11.3153 9.81541 9.91271C9.83097 9.9071 9.84562 9.90108 9.85935 9.9002C10.8154 12.3799 11.2099 14.4577 11.3085 15.0516C10.496 15.3961 9.60153 15.5886 8.66104 15.5886ZM12.4521 14.4293C12.3828 14.0215 12.0214 12.0302 11.1318 9.58368C13.3212 9.23401 15.2197 9.83475 15.3612 9.88083C15.0585 11.7714 13.9765 13.4031 12.4521 14.4293Z" fill="#1F373D"/>
</svg>
