<svg width="18" height="12" viewBox="0 0 18 12" fill="none" xmlns="http://www.w3.org/2000/svg">
<path fill-rule="evenodd" clip-rule="evenodd" d="M15.768 4.72305V4.70539V1.99061C15.768 0.768018 14.9057 0.319276 14.0961 0.319276H3.84908C3.04044 0.319276 2.17812 0.74993 2.17812 1.99061V4.70539V4.72305C1.36856 4.81305 0.59518 5.35307 0.59518 6.5929V8.71382C0.59518 9.07384 0.88426 9.36108 1.2436 9.36108H1.4584V11.0328C1.4584 11.392 1.74656 11.6801 2.1058 11.6801H2.71726C3.0766 11.6801 3.36464 11.392 3.36464 11.0328V9.34342H14.6362V11.0328C14.6362 11.392 14.9233 11.6801 15.2826 11.6801H15.894C16.2533 11.6801 16.5405 11.392 16.5405 11.0328V9.34342H16.7572C17.1167 9.34342 17.4037 9.05575 17.4037 8.69573V6.5929C17.3491 5.35307 16.5775 4.81305 15.768 4.72305ZM2.78856 1.99061H2.8246C2.8246 1.14612 3.38228 0.966538 3.84908 0.966538H14.0961C14.5638 0.966538 15.1206 1.14612 15.1206 1.99061V4.70539H14.6362V3.15981C14.6362 2.79978 14.3471 2.51212 13.9877 2.51212H10.0337C9.6732 2.51212 9.38618 2.79978 9.38618 3.15981V4.70539H8.63122V3.15981C8.63122 2.79978 8.34318 2.51212 7.98382 2.51212H4.02874C3.66928 2.51212 3.38228 2.79978 3.38228 3.15981V4.70539H2.78856V1.99061ZM13.9877 3.15981V4.70539H10.0337V3.15981H13.9877ZM8.0209 3.15981V4.70539H4.06582V3.15981H8.0209ZM2.6986 11.0328H2.08738V9.34342H2.6986V11.0328ZM15.8578 11.0328H15.2466V9.34342H15.8578V11.0328ZM16.7025 8.71382H15.8578H15.2466H2.6986H2.08738H1.22506V7.76123H16.7025V8.71382ZM16.7025 7.11398H1.22506V6.5929C1.22506 5.51413 2.01608 5.35307 2.46526 5.35307H2.8071H4.04728H8.00134H10.0337H13.9877H15.1206H15.4623C15.9301 5.35307 16.7025 5.51413 16.7025 6.5929V7.11398Z" fill="#0F0F0F"/>
</svg>
