<svg width="20" height="27" viewBox="0 0 20 27" fill="none" xmlns="http://www.w3.org/2000/svg">
<path fill-rule="evenodd" clip-rule="evenodd" d="M10.2705 0.28717C4.99316 0.28717 0.699219 4.58114 0.699219 9.85908C0.699219 11.2363 0.981435 12.5506 1.53612 13.7663C3.92965 19.0034 8.51749 24.5324 9.86811 26.1017C9.9687 26.2184 10.1161 26.2869 10.2714 26.2869C10.4267 26.2869 10.5742 26.2184 10.6748 26.1017C12.0244 24.5324 16.6122 19.0038 19.0068 13.7663C19.5615 12.5506 19.8427 11.2363 19.8427 9.85908C19.8427 4.58114 15.5498 0.28717 10.2705 0.28717ZM10.2705 14.8313C7.52929 14.8313 5.29975 12.601 5.29975 9.85908C5.29975 7.11763 7.52929 4.88645 10.2705 4.88645C13.0126 4.88645 15.2431 7.11763 15.2431 9.85908C15.2431 12.601 13.0126 14.8313 10.2705 14.8313Z" fill="white"/>
</svg>
