<svg width="30" height="13" viewBox="0 0 30 13" fill="none" xmlns="http://www.w3.org/2000/svg">
<path fill-rule="evenodd" clip-rule="evenodd" d="M22.821 0.431285L22.1149 1.1384C22.0661 1.18749 22.0661 1.2663 22.1149 1.3154L26.6754 5.87591H1.10509C1.03587 5.87591 0.980128 5.93146 0.980128 6.0008V6.99989C0.980128 7.06922 1.03587 7.12478 1.10509 7.12478H26.6853L22.1238 11.6853C22.0758 11.7344 22.0758 11.8132 22.1238 11.8623L22.8308 12.5681C22.8796 12.6168 22.9586 12.6168 23.0076 12.5681L28.9831 6.59336C29.032 6.5447 29.032 6.4646 28.9831 6.41594L28.277 5.70968H28.2751L22.9978 0.431285C22.9489 0.382625 22.8698 0.382625 22.821 0.431285Z" fill="#1F373D"/>
</svg>
