<svg width="111" height="20" viewBox="0 0 111 20" fill="none" xmlns="http://www.w3.org/2000/svg">
<path d="M0.0500001 0.449999H3.175V19H0.0500001V0.449999ZM19.5766 5.65V19H16.6016V17.3C16.1016 17.9 15.4766 18.3667 14.7266 18.7C13.9766 19.0167 13.1682 19.175 12.3016 19.175C10.5182 19.175 9.1099 18.6833 8.07656 17.7C7.0599 16.7 6.55156 15.225 6.55156 13.275V5.65H9.67656V12.85C9.67656 14.05 9.94323 14.95 10.4766 15.55C11.0266 16.1333 11.8016 16.425 12.8016 16.425C13.9182 16.425 14.8016 16.0833 15.4516 15.4C16.1182 14.7 16.4516 13.7 16.4516 12.4V5.65H19.5766ZM31.5432 19L28.1182 14.375L24.6682 19H21.2182L26.4182 12.225L21.4432 5.65H24.9182L28.1932 10.025L31.4682 5.65H34.8432L29.8432 12.175L35.0682 19H31.5432ZM48.8598 12.4C48.8598 12.6167 48.8431 12.925 48.8098 13.325H38.3348C38.5181 14.3083 38.9931 15.0917 39.7598 15.675C40.5431 16.2417 41.5098 16.525 42.6598 16.525C44.1264 16.525 45.3348 16.0417 46.2848 15.075L47.9598 17C47.3598 17.7167 46.6014 18.2583 45.6848 18.625C44.7681 18.9917 43.7348 19.175 42.5848 19.175C41.1181 19.175 39.8264 18.8833 38.7098 18.3C37.5931 17.7167 36.7264 16.9083 36.1098 15.875C35.5098 14.825 35.2098 13.6417 35.2098 12.325C35.2098 11.025 35.5014 9.85833 36.0848 8.825C36.6848 7.775 37.5098 6.95833 38.5598 6.375C39.6098 5.79167 40.7931 5.5 42.1098 5.5C43.4098 5.5 44.5681 5.79167 45.5848 6.375C46.6181 6.94167 47.4181 7.75 47.9848 8.8C48.5681 9.83333 48.8598 11.0333 48.8598 12.4ZM42.1098 8C41.1098 8 40.2598 8.3 39.5598 8.9C38.8764 9.48333 38.4598 10.2667 38.3098 11.25H45.8848C45.7514 10.2833 45.3431 9.5 44.6598 8.9C43.9764 8.3 43.1264 8 42.1098 8ZM55.3615 19.175C54.2782 19.175 53.2199 19.0333 52.1865 18.75C51.1532 18.4667 50.3282 18.1083 49.7115 17.675L50.9115 15.3C51.5115 15.7 52.2282 16.025 53.0615 16.275C53.9115 16.5083 54.7449 16.625 55.5615 16.625C57.4282 16.625 58.3615 16.1333 58.3615 15.15C58.3615 14.6833 58.1199 14.3583 57.6365 14.175C57.1699 13.9917 56.4115 13.8167 55.3615 13.65C54.2615 13.4833 53.3615 13.2917 52.6615 13.075C51.9782 12.8583 51.3782 12.4833 50.8615 11.95C50.3615 11.4 50.1115 10.6417 50.1115 9.675C50.1115 8.40833 50.6365 7.4 51.6865 6.65C52.7532 5.88333 54.1865 5.5 55.9865 5.5C56.9032 5.5 57.8199 5.60833 58.7365 5.825C59.6532 6.025 60.4032 6.3 60.9865 6.65L59.7865 9.025C58.6532 8.35833 57.3782 8.025 55.9615 8.025C55.0449 8.025 54.3449 8.16667 53.8615 8.45C53.3949 8.71667 53.1615 9.075 53.1615 9.525C53.1615 10.025 53.4115 10.3833 53.9115 10.6C54.4282 10.8 55.2199 10.9917 56.2865 11.175C57.3532 11.3417 58.2282 11.5333 58.9115 11.75C59.5949 11.9667 60.1782 12.3333 60.6615 12.85C61.1615 13.3667 61.4115 14.1 61.4115 15.05C61.4115 16.3 60.8699 17.3 59.7865 18.05C58.7032 18.8 57.2282 19.175 55.3615 19.175ZM71.5027 18.275C71.1361 18.575 70.6861 18.8 70.1527 18.95C69.6361 19.1 69.0861 19.175 68.5027 19.175C67.0361 19.175 65.9027 18.7917 65.1027 18.025C64.3027 17.2583 63.9027 16.1417 63.9027 14.675V8.25H61.7027V5.75H63.9027V2.7H67.0277V5.75H70.6027V8.25H67.0277V14.6C67.0277 15.25 67.1861 15.75 67.5027 16.1C67.8194 16.4333 68.2777 16.6 68.8777 16.6C69.5777 16.6 70.1611 16.4167 70.6277 16.05L71.5027 18.275ZM78.5484 5.5C80.5151 5.5 82.0151 5.975 83.0484 6.925C84.0984 7.85833 84.6234 9.275 84.6234 11.175V19H81.6734V17.375C81.2901 17.9583 80.7401 18.4083 80.0234 18.725C79.3234 19.025 78.4734 19.175 77.4734 19.175C76.4734 19.175 75.5984 19.0083 74.8484 18.675C74.0984 18.325 73.5151 17.85 73.0984 17.25C72.6984 16.6333 72.4984 15.9417 72.4984 15.175C72.4984 13.975 72.9401 13.0167 73.8234 12.3C74.7234 11.5667 76.1318 11.2 78.0484 11.2H81.4984V11C81.4984 10.0667 81.2151 9.35 80.6484 8.85C80.0984 8.35 79.2734 8.1 78.1734 8.1C77.4234 8.1 76.6818 8.21667 75.9484 8.45C75.2318 8.68333 74.6234 9.00833 74.1234 9.425L72.8984 7.15C73.5984 6.61667 74.4401 6.20833 75.4234 5.925C76.4068 5.64167 77.4484 5.5 78.5484 5.5ZM78.1234 16.9C78.9068 16.9 79.5984 16.725 80.1984 16.375C80.8151 16.0083 81.2484 15.4917 81.4984 14.825V13.275H78.2734C76.4734 13.275 75.5734 13.8667 75.5734 15.05C75.5734 15.6167 75.7984 16.0667 76.2484 16.4C76.6984 16.7333 77.3234 16.9 78.1234 16.9ZM96.034 18.275C95.6673 18.575 95.2173 18.8 94.684 18.95C94.1673 19.1 93.6173 19.175 93.034 19.175C91.5673 19.175 90.434 18.7917 89.634 18.025C88.834 17.2583 88.434 16.1417 88.434 14.675V8.25H86.234V5.75H88.434V2.7H91.559V5.75H95.134V8.25H91.559V14.6C91.559 15.25 91.7173 15.75 92.034 16.1C92.3507 16.4333 92.809 16.6 93.409 16.6C94.109 16.6 94.6923 16.4167 95.159 16.05L96.034 18.275ZM110.09 12.4C110.09 12.6167 110.074 12.925 110.04 13.325H99.5652C99.7486 14.3083 100.224 15.0917 100.99 15.675C101.774 16.2417 102.74 16.525 103.89 16.525C105.357 16.525 106.565 16.0417 107.515 15.075L109.19 17C108.59 17.7167 107.832 18.2583 106.915 18.625C105.999 18.9917 104.965 19.175 103.815 19.175C102.349 19.175 101.057 18.8833 99.9402 18.3C98.8236 17.7167 97.9569 16.9083 97.3402 15.875C96.7402 14.825 96.4402 13.6417 96.4402 12.325C96.4402 11.025 96.7319 9.85833 97.3152 8.825C97.9152 7.775 98.7402 6.95833 99.7902 6.375C100.84 5.79167 102.024 5.5 103.34 5.5C104.64 5.5 105.799 5.79167 106.815 6.375C107.849 6.94167 108.649 7.75 109.215 8.8C109.799 9.83333 110.09 11.0333 110.09 12.4ZM103.34 8C102.34 8 101.49 8.3 100.79 8.9C100.107 9.48333 99.6902 10.2667 99.5402 11.25H107.115C106.982 10.2833 106.574 9.5 105.89 8.9C105.207 8.3 104.357 8 103.34 8Z" fill="#1F373D"/>
</svg>
