<svg width="25" height="25" viewBox="0 0 25 25" fill="none" xmlns="http://www.w3.org/2000/svg">
<path fill-rule="evenodd" clip-rule="evenodd" d="M24.3647 19.7117L20.5269 15.8739C19.7632 15.1133 18.4976 15.1366 17.7075 15.9281L15.7748 17.86C15.6519 17.7928 15.5259 17.7226 15.393 17.6477C14.1723 16.972 12.5014 16.0448 10.7436 14.2856C8.98091 12.5226 8.05221 10.8495 7.37448 9.62778C7.30227 9.49859 7.23386 9.37371 7.16644 9.25528L8.46433 7.9599L9.10106 7.3217C9.89403 6.52887 9.91543 5.26409 9.15279 4.50055L5.31583 0.663505C4.55409 -0.0987309 3.28757 -0.0759079 2.49555 0.716053L1.41545 1.80344L1.44384 1.83273C1.08151 2.29565 0.778693 2.82922 0.553131 3.40456C0.345201 3.95234 0.216209 4.47515 0.156701 4.9988C-0.350161 9.19844 1.5697 13.0368 6.77781 18.2454C13.978 25.4445 19.7787 24.9006 20.0297 24.8739C20.5747 24.8088 21.0971 24.6788 21.6283 24.4725C22.1986 24.2499 22.7319 23.9471 23.1947 23.5854L23.2183 23.6069L24.3139 22.5337C25.103 21.7414 25.1265 20.4757 24.3647 19.7117Z" fill="white"/>
</svg>
