<svg width="11" height="12" viewBox="0 0 11 12" fill="none" xmlns="http://www.w3.org/2000/svg">
<path fill-rule="evenodd" clip-rule="evenodd" d="M8.26165 0.162532H5.67369C4.43647 0.162532 3.43053 1.16808 3.43053 2.40619V3.72482C1.93639 3.94271 0.784094 5.23249 0.784094 6.78754C0.784094 7.03559 0.985269 7.23542 1.23235 7.23542H6.52627C6.77427 7.23542 6.97546 7.03559 6.97546 6.78754C6.97546 5.23249 5.82315 3.94271 4.32798 3.72482V2.40619C4.32798 1.66332 4.93258 1.05999 5.67369 1.05999H8.26165C9.00277 1.05999 9.60736 1.66332 9.60736 2.40619V11.1991C9.60736 11.4475 9.80752 11.6478 10.0555 11.6478C10.3036 11.6478 10.5048 11.4475 10.5048 11.1991V2.40619C10.5048 1.16808 9.49797 0.162532 8.26165 0.162532ZM6.03212 6.33796H1.72743C1.93445 5.34102 2.82114 4.58911 3.87982 4.58911C4.93841 4.58911 5.82509 5.34102 6.03212 6.33796ZM4.32798 8.33141V9.0045C4.32798 9.25212 4.12782 9.45281 3.87982 9.45281C3.63172 9.45281 3.43053 9.25212 3.43053 9.0045V8.33141C3.43053 8.08379 3.63172 7.88311 3.87982 7.88311C4.12782 7.88311 4.32798 8.08379 4.32798 8.33141ZM4.32317 10.526V11.1991C4.32317 11.4475 4.12199 11.6478 3.87388 11.6478C3.62588 11.6478 3.42573 11.4475 3.42573 11.1991V10.526C3.42573 10.2788 3.62588 10.0772 3.87388 10.0772C4.12199 10.0772 4.32317 10.2788 4.32317 10.526ZM2.56628 8.33141V9.0045C2.56628 9.25212 2.36509 9.45281 2.11801 9.45281C1.87002 9.45281 1.66883 9.25212 1.66883 9.0045V8.33141C1.66883 8.08379 1.87002 7.88311 2.11801 7.88311C2.36509 7.88311 2.56628 8.08379 2.56628 8.33141ZM2.56147 10.526V11.1991C2.56147 11.4475 2.36028 11.6478 2.11217 11.6478C1.86419 11.6478 1.663 11.4475 1.663 11.1991V10.526C1.663 10.2788 1.86419 10.0772 2.11217 10.0772C2.36028 10.0772 2.56147 10.2788 2.56147 10.526ZM6.08488 8.33141V9.0045C6.08488 9.25212 5.8837 9.45281 5.63662 9.45281C5.38862 9.45281 5.18743 9.25212 5.18743 9.0045V8.33141C5.18743 8.08379 5.38862 7.88311 5.63662 7.88311C5.8837 7.88311 6.08488 8.08379 6.08488 8.33141ZM6.07905 10.526V11.1991C6.07905 11.4475 5.87786 11.6478 5.63169 11.6478C5.3837 11.6478 5.18251 11.4475 5.18251 11.1991V10.526C5.18251 10.2788 5.3837 10.0772 5.63169 10.0772C5.87786 10.0772 6.07905 10.2788 6.07905 10.526Z" fill="black"/>
</svg>
