<svg width="17" height="14" viewBox="0 0 17 14" fill="none" xmlns="http://www.w3.org/2000/svg">
<path fill-rule="evenodd" clip-rule="evenodd" d="M16.7139 2.35051C16.1327 2.60933 15.5068 2.78416 14.8496 2.86211C15.5194 2.46075 16.0351 1.82382 16.2773 1.06418C15.6503 1.43712 14.9531 1.70798 14.2148 1.8544C13.623 1.22136 12.7782 0.82776 11.8437 0.82776C10.0497 0.82776 8.59563 2.28203 8.59563 4.0761C8.59563 4.32974 8.62493 4.57779 8.67963 4.81637C5.98043 4.68245 3.58782 3.38835 1.98427 1.42162C1.70503 1.90005 1.54389 2.46075 1.54389 3.05634C1.54389 4.1816 2.11908 5.17467 2.99021 5.75949C2.45794 5.74182 1.956 5.59541 1.51758 5.35253C1.51758 5.36587 1.51758 5.37965 1.51758 5.3943C1.51758 6.96658 2.63863 8.28003 4.12398 8.57891C3.85057 8.65298 3.56435 8.69131 3.2675 8.69131C3.05853 8.69131 2.85539 8.67278 2.65718 8.6336C3.06929 9.92467 4.26942 10.8639 5.68941 10.8906C4.57808 11.7614 3.17869 12.2812 1.65719 12.2812C1.39444 12.2812 1.13672 12.2644 0.880829 12.2351C2.32027 13.1562 4.02727 13.6941 5.8613 13.6941C11.8359 13.6941 15.1034 8.7447 15.1034 4.45205C15.1034 4.3121 15.1006 4.17083 15.0937 4.03088C15.7285 3.57397 16.2792 3.00165 16.7139 2.35051Z" fill="#1F373D"/>
</svg>
